<mxfile host="app.diagrams.net" modified="2020-11-16T13:18:32.882Z" agent="5.0 (Macintosh; Intel Mac OS X 10_15_7) AppleWebKit/537.36 (KHTML, like Gecko) Chrome/86.0.4240.198 Safari/537.36" etag="woNOqvkTB457HaVJs9U_" version="13.9.9" type="github">
  <diagram id="xLT4Kaf77Bnq2SY0XqXZ" name="Page-1">
    <mxGraphModel dx="760" dy="758" grid="1" gridSize="10" guides="1" tooltips="1" connect="1" arrows="1" fold="1" page="1" pageScale="1" pageWidth="827" pageHeight="1169" math="0" shadow="0">
      <root>
        <mxCell id="0" />
        <mxCell id="1" parent="0" />
        <mxCell id="L18IE7SVpMjhVck34zIv-2" style="edgeStyle=orthogonalEdgeStyle;rounded=0;orthogonalLoop=1;jettySize=auto;html=1;" edge="1" parent="1" source="L18IE7SVpMjhVck34zIv-8" target="L18IE7SVpMjhVck34zIv-3">
          <mxGeometry relative="1" as="geometry">
            <mxPoint x="400" y="200" as="targetPoint" />
          </mxGeometry>
        </mxCell>
        <mxCell id="L18IE7SVpMjhVck34zIv-1" value="開始" style="ellipse;whiteSpace=wrap;html=1;" vertex="1" parent="1">
          <mxGeometry x="340" y="50" width="120" height="80" as="geometry" />
        </mxCell>
        <mxCell id="L18IE7SVpMjhVck34zIv-14" style="edgeStyle=orthogonalEdgeStyle;rounded=0;orthogonalLoop=1;jettySize=auto;html=1;entryX=0.575;entryY=0;entryDx=0;entryDy=0;entryPerimeter=0;" edge="1" parent="1">
          <mxGeometry relative="1" as="geometry">
            <mxPoint x="541" y="400" as="targetPoint" />
            <mxPoint x="452" y="320" as="sourcePoint" />
          </mxGeometry>
        </mxCell>
        <mxCell id="L18IE7SVpMjhVck34zIv-15" style="edgeStyle=orthogonalEdgeStyle;rounded=0;orthogonalLoop=1;jettySize=auto;html=1;entryX=0.5;entryY=0;entryDx=0;entryDy=0;" edge="1" parent="1" source="L18IE7SVpMjhVck34zIv-3" target="L18IE7SVpMjhVck34zIv-10">
          <mxGeometry relative="1" as="geometry">
            <mxPoint x="250" y="320" as="targetPoint" />
          </mxGeometry>
        </mxCell>
        <mxCell id="L18IE7SVpMjhVck34zIv-3" value="a &amp;gt; b か？" style="rhombus;whiteSpace=wrap;html=1;" vertex="1" parent="1">
          <mxGeometry x="340" y="280" width="120" height="80" as="geometry" />
        </mxCell>
        <mxCell id="L18IE7SVpMjhVck34zIv-4" value="YES" style="text;html=1;align=center;verticalAlign=middle;resizable=0;points=[];autosize=1;" vertex="1" parent="1">
          <mxGeometry x="340" y="360" width="40" height="20" as="geometry" />
        </mxCell>
        <mxCell id="L18IE7SVpMjhVck34zIv-5" value="NO" style="text;html=1;align=center;verticalAlign=middle;resizable=0;points=[];autosize=1;" vertex="1" parent="1">
          <mxGeometry x="430" y="360" width="30" height="20" as="geometry" />
        </mxCell>
        <mxCell id="L18IE7SVpMjhVck34zIv-8" value="&amp;nbsp;a,b の２つの数値を入力する" style="rounded=0;whiteSpace=wrap;html=1;" vertex="1" parent="1">
          <mxGeometry x="340" y="170" width="120" height="60" as="geometry" />
        </mxCell>
        <mxCell id="L18IE7SVpMjhVck34zIv-9" style="edgeStyle=orthogonalEdgeStyle;rounded=0;orthogonalLoop=1;jettySize=auto;html=1;" edge="1" parent="1" source="L18IE7SVpMjhVck34zIv-1" target="L18IE7SVpMjhVck34zIv-8">
          <mxGeometry relative="1" as="geometry">
            <mxPoint x="400" y="280" as="targetPoint" />
            <mxPoint x="400" y="130" as="sourcePoint" />
          </mxGeometry>
        </mxCell>
        <mxCell id="L18IE7SVpMjhVck34zIv-17" value="" style="edgeStyle=orthogonalEdgeStyle;rounded=0;orthogonalLoop=1;jettySize=auto;html=1;" edge="1" parent="1" source="L18IE7SVpMjhVck34zIv-10" target="L18IE7SVpMjhVck34zIv-12">
          <mxGeometry relative="1" as="geometry" />
        </mxCell>
        <mxCell id="L18IE7SVpMjhVck34zIv-10" value="a を返却する" style="rounded=0;whiteSpace=wrap;html=1;" vertex="1" parent="1">
          <mxGeometry x="200" y="400" width="120" height="60" as="geometry" />
        </mxCell>
        <mxCell id="L18IE7SVpMjhVck34zIv-16" style="edgeStyle=orthogonalEdgeStyle;rounded=0;orthogonalLoop=1;jettySize=auto;html=1;entryX=0.5;entryY=0;entryDx=0;entryDy=0;" edge="1" parent="1" source="L18IE7SVpMjhVck34zIv-11" target="L18IE7SVpMjhVck34zIv-13">
          <mxGeometry relative="1" as="geometry" />
        </mxCell>
        <mxCell id="L18IE7SVpMjhVck34zIv-11" value="b を返却する" style="rounded=0;whiteSpace=wrap;html=1;" vertex="1" parent="1">
          <mxGeometry x="480" y="400" width="120" height="60" as="geometry" />
        </mxCell>
        <mxCell id="L18IE7SVpMjhVck34zIv-12" value="終了" style="ellipse;whiteSpace=wrap;html=1;" vertex="1" parent="1">
          <mxGeometry x="200" y="500" width="120" height="80" as="geometry" />
        </mxCell>
        <mxCell id="L18IE7SVpMjhVck34zIv-13" value="終了" style="ellipse;whiteSpace=wrap;html=1;" vertex="1" parent="1">
          <mxGeometry x="480" y="500" width="120" height="80" as="geometry" />
        </mxCell>
      </root>
    </mxGraphModel>
  </diagram>
</mxfile>
